<?xml version="1.0" encoding="UTF-8"?>
<!DOCTYPE svg PUBLIC "-//W3C//DTD SVG 1.1//EN" "http://www.w3.org/Graphics/SVG/1.1/DTD/svg11.dtd">
<!-- Creator: CorelDRAW X6 -->
<svg xmlns="http://www.w3.org/2000/svg" xml:space="preserve" width="44.1576mm" height="8.9068mm" version="1.1"
    style="shape-rendering:geometricPrecision; text-rendering:geometricPrecision; image-rendering:optimizeQuality; fill-rule:evenodd; clip-rule:evenodd"
    viewBox="0 0 3026 610" xmlns:xlink="http://www.w3.org/1999/xlink">
    <defs>
        <style type="text/css">
            <![CDATA[
            .fil1 {
                fill: #e7dfdf;
                fill-rule: nonzero
            }

            .fil0 {
                fill: #ebe0e0;
                fill-rule: nonzero
            }

            .fil2 {
                fill: #2D97D3;
                fill-rule: nonzero
            }
            ]]>
        </style>
    </defs>
    <g id="Layer_x0020_1">
        <metadata id="CorelCorpID_0Corel-Layer" />
        <g id="_147096016">
            <path class="fil0"
                d="M666 43l21 0 19 36 19 -36 20 0 -30 57 0 44 -19 0 0 -44 -30 -57zm157 24c7,0 14,2 20,5 6,4 11,8 15,14 4,6 5,13 5,20 0,7 -2,14 -5,20 -4,6 -8,11 -14,14 -6,3 -13,5 -20,5 -11,0 -20,-4 -27,-11 -8,-8 -11,-17 -11,-28 0,-12 4,-21 13,-29 8,-7 16,-10 26,-10zm0 18c-6,0 -11,2 -15,6 -4,4 -6,9 -6,16 0,7 2,12 6,16 4,4 9,6 15,6 6,0 11,-2 15,-6 4,-4 6,-9 6,-16 0,-6 -2,-12 -6,-16 -4,-4 -9,-6 -15,-6zm84 -16l19 0 0 36c0,7 0,12 1,15 1,3 3,5 5,6 2,2 5,2 8,2 3,0 6,-1 8,-2 2,-2 4,-4 5,-7 1,-2 1,-7 1,-14l0 -37 19 0 0 32c0,13 -1,22 -3,27 -3,6 -6,10 -11,13 -5,3 -11,5 -19,5 -8,0 -15,-2 -20,-5 -5,-4 -9,-9 -11,-15 -1,-5 -2,-13 -2,-25l0 -31zm109 0l16 0 0 9c2,-4 4,-7 7,-8 3,-2 6,-3 10,-3 2,0 5,1 8,2l-6 16c-2,-1 -4,-2 -5,-2 -3,0 -5,2 -7,5 -2,4 -3,11 -3,21l0 4 0 30 -19 0 0 -75zm243 10l-12 12c-5,-5 -9,-7 -13,-7 -2,0 -4,0 -5,1 -1,1 -2,2 -2,3 0,1 0,2 1,3 1,1 3,2 6,3l7 3c7,4 12,7 15,11 3,4 4,8 4,13 0,7 -2,12 -7,17 -5,4 -11,7 -20,7 -11,0 -20,-4 -26,-13l12 -13c2,3 5,5 8,6 3,2 6,2 8,2 2,0 4,-1 6,-2 2,-1 2,-3 2,-4 0,-3 -3,-6 -8,-8l-6 -3c-12,-6 -18,-14 -18,-23 0,-6 2,-11 7,-15 5,-4 10,-6 18,-6 5,0 9,1 14,3 4,2 8,5 11,9zm101 -10l19 0 0 75 -19 0 0 -8c-4,3 -7,6 -11,8 -4,2 -8,2 -12,2 -10,0 -18,-4 -25,-11 -7,-7 -11,-17 -11,-28 0,-12 3,-21 10,-28 7,-7 15,-11 25,-11 4,0 9,1 13,3 4,2 8,4 11,8l0 -8zm-20 15c-6,0 -11,2 -15,6 -4,4 -6,9 -6,16 0,6 2,12 6,16 4,4 9,6 14,6 6,0 11,-2 15,-6 4,-4 6,-9 6,-16 0,-7 -2,-12 -6,-16 -4,-4 -9,-6 -15,-6zm78 -15l7 0c0,-10 0,-16 0,-17 1,-4 2,-7 5,-10 3,-2 7,-4 13,-4 4,0 8,1 13,3l0 14c-3,-1 -5,-1 -7,-1 -2,0 -4,0 -5,1 -1,1 -1,2 -1,4l0 9 12 0 0 16 -12 0 0 59 -19 0 0 -59 -7 0 0 -16zm152 43l-60 0c1,5 3,10 7,13 4,3 9,5 14,5 7,0 13,-2 18,-7l16 7c-4,6 -9,10 -14,12 -5,3 -12,4 -20,4 -12,0 -21,-4 -29,-11 -7,-7 -11,-17 -11,-28 0,-11 4,-21 11,-28 7,-8 17,-11 28,-11 12,0 21,4 29,11 7,8 11,18 11,30l0 4zm-19 -15c-1,-4 -4,-8 -7,-10 -4,-3 -8,-4 -13,-4 -5,0 -10,1 -14,4 -2,2 -5,5 -7,10l41 0zm65 -56l19 0 0 28 11 0 0 16 -11 0 0 59 -19 0 0 -59 -10 0 0 -16 10 0 0 -28zm61 28l19 0 19 47 21 -47 19 0 -47 102 -19 0 15 -33 -28 -69zm245 -31c3,0 6,1 8,4 2,2 4,5 4,9 0,3 -1,6 -4,9 -2,2 -5,4 -8,4 -3,0 -6,-1 -9,-4 -2,-2 -4,-5 -4,-9 0,-3 1,-6 3,-8 2,-2 5,-3 8,-3zm-9 31l19 0 0 75 -19 0 0 -75zm111 10l-12 12c-5,-5 -9,-7 -13,-7 -2,0 -4,0 -5,1 -1,1 -2,2 -2,3 0,1 0,2 1,3 1,1 3,2 6,3l7 3c7,4 12,7 15,11 3,4 4,8 4,13 0,7 -2,12 -7,17 -5,4 -11,7 -20,7 -11,0 -20,-4 -26,-13l12 -13c2,3 5,5 8,6 3,2 6,2 8,2 2,0 4,-1 6,-2 2,-1 2,-3 2,-4 0,-3 -3,-6 -8,-8l-6 -3c-12,-6 -18,-14 -18,-23 0,-6 2,-11 7,-15 5,-4 10,-6 18,-6 5,0 9,1 14,3 4,2 8,5 11,9zm199 -12c7,0 14,2 20,5 6,4 11,8 15,14 4,6 5,13 5,20 0,7 -2,14 -5,20 -4,6 -8,11 -14,14 -6,3 -13,5 -20,5 -11,0 -20,-4 -27,-11 -8,-8 -11,-17 -11,-28 0,-12 4,-21 13,-29 8,-7 16,-10 26,-10zm0 18c-6,0 -11,2 -15,6 -4,4 -6,9 -6,16 0,7 2,12 6,16 4,4 9,6 15,6 6,0 11,-2 15,-6 4,-4 6,-9 6,-16 0,-6 -2,-12 -6,-16 -4,-4 -9,-6 -15,-6zm84 -16l19 0 0 36c0,7 0,12 1,15 1,3 3,5 5,6 2,2 5,2 8,2 3,0 6,-1 8,-2 2,-2 4,-4 5,-7 1,-2 1,-7 1,-14l0 -37 19 0 0 32c0,13 -1,22 -3,27 -3,6 -6,10 -11,13 -5,3 -11,5 -19,5 -8,0 -15,-2 -20,-5 -5,-4 -9,-9 -11,-15 -1,-5 -2,-13 -2,-25l0 -31zm109 0l16 0 0 9c2,-4 4,-7 7,-8 3,-2 6,-3 10,-3 2,0 5,1 8,2l-6 16c-2,-1 -4,-2 -5,-2 -3,0 -5,2 -7,5 -2,4 -3,11 -3,21l0 4 0 30 -19 0 0 -75zm206 -31c3,0 6,1 9,4 2,2 4,5 4,9 0,3 -1,6 -3,9 -2,2 -5,4 -8,4 -3,0 -6,-1 -9,-4 -2,-2 -4,-5 -4,-9 0,-3 1,-6 3,-8 2,-2 5,-3 8,-3zm-9 31l19 0 0 77c0,7 -1,12 -2,16 -1,3 -4,6 -7,8 -3,2 -7,3 -11,3 -4,0 -8,-1 -14,-3l0 -15c3,1 6,2 8,2 2,0 4,-1 5,-2 1,-1 2,-4 2,-8l0 -79zm101 -2c7,0 14,2 20,5 6,4 11,8 15,14 3,6 5,13 5,20 0,7 -2,14 -5,20 -4,6 -8,11 -14,14 -6,3 -13,5 -20,5 -11,0 -20,-4 -27,-11 -8,-8 -11,-17 -11,-28 0,-12 4,-21 13,-29 8,-7 16,-10 26,-10zm0 18c-6,0 -11,2 -15,6 -4,4 -6,9 -6,16 0,7 2,12 6,16 4,4 9,6 15,6 6,0 11,-2 15,-6 4,-4 6,-9 6,-16 0,-6 -2,-12 -6,-16 -4,-4 -9,-6 -15,-6zm102 -45l0 37c3,-3 7,-6 11,-8 4,-2 8,-3 13,-3 10,0 18,4 25,11 7,7 10,17 10,28 0,11 -4,20 -11,28 -7,7 -15,11 -25,11 -4,0 -8,-1 -12,-2 -4,-2 -7,-4 -11,-8l0 8 -19 0 0 -104 19 0zm20 44c-6,0 -11,2 -15,6 -4,4 -6,9 -6,16 0,7 2,12 6,16 4,4 9,6 15,6 6,0 11,-2 14,-6 4,-4 6,-9 6,-16 0,-6 -2,-12 -6,-16 -4,-4 -9,-6 -15,-6z" />
            <path class="fil1"
                d="M2308 436c10,0 18,3 25,10 7,7 11,15 11,25 0,10 -4,18 -11,25 -7,7 -15,11 -25,11 -10,0 -18,-4 -25,-11 -7,-7 -11,-15 -11,-25 0,-10 4,-18 11,-25 7,-7 15,-10 25,-10z" />
            <path class="fil1"
                d="M2019 252l62 0 0 25c14,-12 27,-20 39,-25 11,-5 23,-7 35,-7 25,0 46,9 63,26 15,15 22,36 22,65l0 165 -62 0 0 -109c0,-30 -1,-50 -4,-59 -3,-10 -7,-17 -14,-22 -7,-5 -15,-8 -25,-8 -13,0 -24,4 -33,13 -9,8 -15,20 -19,35 -2,8 -3,25 -3,51l0 100 -62 0 0 -249z" />
            <path class="fil1"
                d="M1789 252l0 28c11,-11 24,-20 37,-25 13,-6 27,-9 42,-9 33,0 60,12 83,37 23,25 34,56 34,95 0,37 -12,68 -35,93 -24,25 -51,37 -84,37 -14,0 -28,-3 -40,-8 -12,-5 -25,-13 -37,-25l0 117 -62 0 0 -340 62 0zm66 51c-20,0 -36,7 -49,20 -13,13 -19,31 -19,53 0,22 6,40 19,54 13,14 29,21 49,21 19,0 35,-7 48,-21 13,-14 20,-32 20,-53 0,-21 -6,-39 -19,-53 -13,-14 -29,-20 -49,-20z" />
            <polygon class="fil1" points="1460,252 1524,252 1587,399 1649,252 1713,252 1607,501 1566,501 " />
            <path class="fil1"
                d="M1227 252l62 0 0 25c14,-12 27,-20 39,-25 11,-5 23,-7 35,-7 25,0 46,9 63,26 15,15 22,36 22,65l0 165 -62 0 0 -109c0,-30 -1,-50 -4,-59 -3,-10 -7,-17 -14,-22 -7,-5 -15,-8 -25,-8 -13,0 -24,4 -33,13 -9,8 -15,20 -19,35 -2,8 -3,25 -3,51l0 100 -62 0 0 -249z" />
            <path class="fil1"
                d="M1199 395l-201 0c3,18 11,32 23,42 13,10 29,16 48,16 23,0 43,-8 60,-25l53 25c-13,19 -29,32 -47,41 -18,9 -40,13 -65,13 -39,0 -71,-12 -95,-37 -25,-25 -37,-56 -37,-93 0,-38 12,-70 37,-95 25,-25 55,-38 92,-38 39,0 71,13 96,38 25,25 37,58 37,99l0 12zm-63 -49c-4,-14 -12,-25 -24,-34 -12,-9 -26,-13 -42,-13 -17,0 -33,5 -46,15 -8,6 -16,17 -23,32l135 0z" />
            <path class="fil1"
                d="M724 252l0 28c11,-11 24,-20 37,-25 13,-6 27,-9 42,-9 33,0 60,12 83,37 23,25 34,56 34,95 0,37 -12,68 -35,93 -24,25 -51,37 -84,37 -14,0 -28,-3 -40,-8 -12,-5 -25,-13 -37,-25l0 117 -62 0 0 -340 62 0zm66 51c-20,0 -36,7 -49,20 -13,13 -19,31 -19,53 0,22 6,40 19,54 13,14 29,21 49,21 19,0 35,-7 48,-21 13,-14 20,-32 20,-53 0,-21 -6,-39 -19,-53 -13,-14 -29,-20 -49,-20z" />
            <path class="fil2"
                d="M379 510c68,0 127,-25 176,-74 49,-50 74,-110 74,-181 0,-71 -25,-131 -74,-181 -49,-49 -108,-74 -176,-74 -45,0 -87,11 -126,34 -39,23 -70,53 -92,92 -22,39 -33,81 -33,127l0 2 0 2c0,46 11,89 33,127 22,39 53,69 92,92 39,23 81,34 126,34zm158 -255l0 1c0,46 -15,85 -46,117 -31,32 -68,48 -112,48 -45,0 -82,-15 -113,-47 -30,-31 -46,-71 -46,-118 0,-48 15,-87 46,-118 30,-31 68,-47 113,-47 44,0 82,16 112,48 31,32 46,71 46,117l0 1z" />
            <path class="fil1"
                d="M236 260c46,15 79,45 101,89 22,44 25,90 9,138l-61 -21 0 0 -212 -72 -62 -21 0 -1c10,-31 27,-57 51,-78 24,-21 51,-35 82,-41 31,-6 62,-4 92,6zm-77 226c8,3 12,12 9,19 -2,7 -8,10 -15,10l-1 15 -1 30 -16 -5 -16 -5 17 -25 8 -12c-5,-4 -8,-10 -6,-17 2,-7 11,-12 19,-9zm125 -20l0 0c10,-31 9,-60 -5,-89 -13,-28 -35,-47 -64,-57 -30,-10 -58,-8 -86,6 -27,14 -46,37 -57,69l-62 -21 0 1c-10,31 -12,62 -6,93 6,31 20,58 41,82 21,24 47,41 77,51 46,15 91,12 134,-10 44,-22 74,-57 90,-104l-61 -21z" />
            <path class="fil2"
                d="M130 217c-2,12 -2,24 -2,37l0 2 0 2c0,36 7,70 21,102l91 -21c-13,-24 -19,-51 -19,-82 0,-12 1,-24 3,-36l-93 -3z" />
            <path class="fil1"
                d="M2430 252l0 28c11,-11 24,-20 37,-25 13,-6 27,-9 42,-9 33,0 60,12 83,37 23,25 34,56 34,95 0,37 -12,68 -35,93 -24,25 -51,37 -84,37 -14,0 -28,-3 -40,-8 -12,-5 -25,-13 -37,-25l0 117 -62 0 0 -340 62 0zm66 51c-20,0 -36,7 -49,20 -13,13 -19,31 -19,53 0,22 6,40 19,54 13,14 29,21 49,21 19,0 35,-7 48,-21 13,-14 20,-32 20,-53 0,-21 -6,-39 -19,-53 -13,-14 -29,-20 -49,-20z" />
            <path class="fil1"
                d="M2655 252l54 0 0 31c6,-12 14,-22 23,-28 10,-6 20,-10 32,-10 8,0 16,2 25,6l-19 54c-7,-4 -13,-5 -18,-5 -10,0 -18,6 -24,18 -7,12 -10,35 -10,70l0 12 0 101 -62 0 0 -249z" />
            <path class="fil1"
                d="M2772 372c0,-35 12,-64 35,-89 23,-24 54,-37 92,-37 39,0 70,13 93,38 23,25 34,55 34,90 0,35 -12,65 -35,91 -23,25 -54,38 -92,38 -36,0 -66,-11 -90,-33 -25,-22 -37,-55 -37,-99zm67 3c0,24 6,42 17,55 11,13 26,20 43,20 17,0 31,-6 43,-19 11,-13 17,-32 17,-57 0,-22 -5,-40 -16,-54 -11,-14 -25,-21 -43,-21 -18,0 -32,7 -43,20 -11,13 -17,32 -17,55z" />
        </g>
    </g>
</svg>